<?xml version="1.0" encoding="utf-8"?>
<!-- Generator: Adobe Illustrator 24.0.2, SVG Export Plug-In . SVG Version: 6.00 Build 0)  -->
<svg version="1.1" id="Layer_1" xmlns="http://www.w3.org/2000/svg" xmlns:xlink="http://www.w3.org/1999/xlink" x="0px" y="0px"
	 viewBox="0 0 64 64" style="enable-background:new 0 0 64 64;" xml:space="preserve">
<style type="text/css">
	.st0{fill:#5059C9;}
	.st1{fill:#7B83EB;}
	.st2{opacity:0.2;enable-background:new    ;}
	.st3{opacity:0.1;enable-background:new    ;}
	.st4{fill:#4B53BC;}
	.st5{fill:#FFFFFF;}
</style>
<title>Teams_64x</title>
<g>
	<path class="st0" d="M44.2,42.5V27c0-0.8,0.6-1.4,1.4-1.4h15.7c1.5,0,2.7,1.2,2.7,2.7v14.2c0,5.4-4.4,9.9-9.9,9.9h-0.1
		C48.6,52.4,44.2,48,44.2,42.5z"/>
	<circle class="st0" cx="54.1" cy="15.7" r="6.4"/>
	<path class="st0" d="M53.4,53.1c-0.1,0-0.3,0-0.4,0C53.1,53.1,53.2,53.1,53.4,53.1z"/>
	<path class="st0" d="M53.5,53.1L53.5,53.1L53.5,53.1z"/>
	<circle class="st1" cx="33.7" cy="12.8" r="9.3"/>
	<path class="st1" d="M48.5,25.6H21.3c-1.5,0-2.7,1.2-2.7,2.7v16.1c0.1,9,7.5,16.2,16.5,16.1c8.9-0.1,16-7.3,16.1-16.1V28.3
		C51.2,26.8,50,25.6,48.5,25.6z"/>
	<path class="st2" d="M33.7,25.6v24.1c0,0.2,0,0.3,0,0.5c-0.2,1.3-1.3,2.3-2.7,2.2H20.8c-0.2-0.4-0.4-0.8-0.6-1.2
		c-0.2-0.4-0.3-0.8-0.5-1.2c-0.7-1.8-1-3.7-1-5.6V28.3c0-1.5,1.2-2.7,2.7-2.7c0,0,0,0,0,0H33.7z"/>
	<path class="st2" d="M33.7,19v3.1c-0.4,0-0.8,0-1.2-0.1c-3.3-0.4-6.2-2.6-7.5-5.7H31C32.5,16.3,33.7,17.5,33.7,19
		C33.7,19,33.7,19,33.7,19z"/>
	<path class="st3" d="M34.9,25.6v21.7c0,2.1-1.7,3.9-3.9,3.9H20.1c-0.2-0.4-0.3-0.8-0.5-1.2c-0.7-1.8-1-3.7-1-5.6V28.3
		c0-1.5,1.2-2.7,2.7-2.7c0,0,0,0,0,0H34.9z"/>
	<path class="st3" d="M34.9,19v3c-0.8,0.1-1.6,0.1-2.3,0c-3.3-0.4-6.2-2.6-7.5-5.7c-0.2-0.4-0.3-0.8-0.4-1.2H31
		C33.2,15.1,34.9,16.9,34.9,19z"/>
	<path class="st2" d="M33.7,25.6v21.7c0,1.5-1.2,2.7-2.7,2.7c0,0,0,0,0,0H19.6c-0.7-1.8-1-3.7-1-5.6V28.3c0-1.5,1.2-2.7,2.7-2.7
		c0,0,0,0,0,0H33.7z"/>
	<path class="st2" d="M33.7,19v3.1c-0.4,0-0.8,0-1.2-0.1c-3.3-0.4-6.2-2.6-7.5-5.7H31C32.5,16.3,33.7,17.5,33.7,19
		C33.7,19,33.7,19,33.7,19z"/>
	<path class="st3" d="M32.6,19v3c-3.3-0.4-6.2-2.6-7.5-5.7h4.8C31.4,16.3,32.6,17.5,32.6,19C32.6,19,32.6,19,32.6,19z"/>
	<path class="st3" d="M21.3,25.6h11.3v21.7c0,1.5-1.2,2.7-2.7,2.7c0,0,0,0,0,0H19.6c-0.7-1.8-1-3.7-1-5.6V28.3
		C18.6,26.8,19.8,25.6,21.3,25.6C21.3,25.6,21.3,25.6,21.3,25.6z"/>
	<path class="st4" d="M2.7,16.3h27.2c1.5,0,2.7,1.2,2.7,2.7v27.2c0,1.5-1.2,2.7-2.7,2.7H2.7c-1.5,0-2.7-1.2-2.7-2.7V19
		C0,17.5,1.2,16.3,2.7,16.3z"/>
	<path class="st5" d="M23.3,26.2H18v15.2h-3.4V26.2H9.3v-2.9h14V26.2z"/>
</g>
</svg>
